#N canvas 1055 45 863 235 10;
#X obj 173 66 == \$1;
#X obj 221 101 ||;
#X obj 243 64 == \$1;
#X obj 221 123 ||;
#X obj 304 63 == \$1;
#X obj 221 145 ||;
#X obj 359 65 == \$1;
#X obj 221 167 outlet;
#X obj 173 44 r bbX0;
#X obj 243 42 r bbX1;
#X obj 304 41 r bbX2;
#X obj 359 43 r bbX3;
#X connect 0 0 1 0;
#X connect 1 0 3 0;
#X connect 2 0 1 1;
#X connect 3 0 5 0;
#X connect 4 0 3 1;
#X connect 5 0 7 0;
#X connect 6 0 5 1;
#X connect 8 0 0 0;
#X connect 9 0 2 0;
#X connect 10 0 4 0;
#X connect 11 0 6 0;
