#N canvas 0 45 1149 1033 10;
#X obj 662 67 r oscIn;
#X obj 662 89 route voice\$1;
#X obj 662 111 route spawn x y z area;
#X msg 739 170 \$1;
#X obj 118 395 line~;
#X msg 798 165 1 \$1;
#X obj 798 186 -;
#X obj 798 213 - 0.6;
#X obj 798 240 max 0;
#X msg 677 202 \$1;
#X obj 798 262 * 2.5;
#X obj 739 192 s \$0.y;
#X obj 798 284 s \$0.z;
#X msg 546 193 \$1;
#X obj 546 215 s \$0.spawn;
#X obj 168 257 r \$0.spawn;
#X obj 168 279 sel 0;
#X obj 118 332 pack f f;
#X msg 168 301 0;
#X obj 118 354 t a b;
#X msg 202 337 32;
#X obj 242 416 line~;
#X obj 298 274 r \$0.spawn;
#X obj 298 296 sel 0;
#X obj 242 353 pack f f;
#X msg 298 318 0;
#X obj 242 375 t a b;
#X msg 326 358 32;
#X obj 156 176 line~;
#X obj 208 39 r \$0.spawn;
#X obj 208 61 sel 0;
#X obj 156 113 pack f f;
#X msg 208 83 0;
#X obj 156 135 t a b;
#X msg 240 118 32;
#X obj 111 289 r \$0.x;
#X obj 118 417 s~ \$0.x;
#X obj 241 326 r \$0.y;
#X obj 242 438 s~ \$0.y;
#X obj 154 88 r \$0.z;
#X obj 156 204 s~ \$0.z;
#X obj 672 232 s \$0.x;
#X obj 589 600 r~ \$0.x, f 8;
#X obj 540 731 octave~;
#X obj 520 653 sig~;
#X obj 984 539 r oscIn;
#X obj 984 561 route voice-1;
#X obj 984 583 route mode;
#X msg 988 609 \$1;
#X obj 493 492 r oscIn;
#X obj 493 514 route voice-1;
#X obj 493 536 route tonic;
#X msg 493 558 \$1;
#X obj 805 605 pmetro 1;
#X obj 794 552 loadbang;
#X obj 880 471 r \$0.z;
#X obj 880 537 max 0;
#X obj 860 803 vline~;
#X msg 858 766 0 \, 1 \$1 \, 0 \$1 \$1;
#X obj 553 865 *~;
#X obj 511 978 outlet~;
#X obj 621 981 outlet~;
#X obj 938 673 bng 15 250 50 0 empty empty empty 17 7 0 10 -262144
-1 -1;
#X floatatom 952 500 5 0 0 0 - - -, f 5;
#X obj 992 659 == 0;
#X obj 589 676 *~ 3;
#X floatatom 522 592 5 0 0 0 - - -, f 5;
#X obj 589 698 +~ 2;
#X obj 853 836 lop~ 128;
#X obj 589 622 +~;
#X obj 685 612 rnd2;
#X obj 685 634 * 0.1;
#X obj 685 656 sig~;
#X obj 814 636 spigot;
#X obj 883 621 r \$0.spawn;
#X obj 531 747 phasor~;
#X obj 535 780 +~;
#X obj 532 812 cos~;
#X obj 692 850 osc~;
#X obj 708 740 rnd;
#X obj 708 806 lop~ 64;
#X obj 723 882 *~;
#X obj 804 820 rnd;
#X obj 804 842 * 2;
#X obj 804 864 lop~ 54;
#X obj 708 762 * 1000;
#X obj 708 784 + 40;
#X obj 858 720 random 10;
#X obj 858 742 + 2;
#X obj 880 492 * 3;
#X obj 880 515 - 2;
#X floatatom 880 581 5 0 0 0 - - -, f 5;
#X obj 588 952 cppan~;
#X obj 769 961 rnd2;
#X obj 769 983 lop~ 12;
#X obj 801 661 t b b b b b;
#X obj 880 559 * 25;
#X obj 583 922 *~;
#X obj 635 900 lop~ 24;
#X connect 0 0 1 0;
#X connect 1 0 2 0;
#X connect 2 0 13 0;
#X connect 2 1 9 0;
#X connect 2 2 3 0;
#X connect 2 3 5 0;
#X connect 3 0 11 0;
#X connect 4 0 36 0;
#X connect 5 0 6 0;
#X connect 6 0 7 0;
#X connect 7 0 8 0;
#X connect 8 0 10 0;
#X connect 9 0 41 0;
#X connect 10 0 12 0;
#X connect 13 0 14 0;
#X connect 15 0 16 0;
#X connect 16 0 18 0;
#X connect 17 0 19 0;
#X connect 18 0 17 1;
#X connect 19 0 4 0;
#X connect 19 1 20 0;
#X connect 20 0 17 1;
#X connect 21 0 38 0;
#X connect 22 0 23 0;
#X connect 23 0 25 0;
#X connect 24 0 26 0;
#X connect 25 0 24 1;
#X connect 26 0 21 0;
#X connect 26 1 27 0;
#X connect 27 0 24 1;
#X connect 28 0 40 0;
#X connect 29 0 30 0;
#X connect 30 0 32 0;
#X connect 31 0 33 0;
#X connect 32 0 31 1;
#X connect 33 0 28 0;
#X connect 33 1 34 0;
#X connect 34 0 31 1;
#X connect 35 0 17 0;
#X connect 37 0 24 0;
#X connect 39 0 31 0;
#X connect 42 0 69 0;
#X connect 43 0 75 0;
#X connect 44 0 43 0;
#X connect 45 0 46 0;
#X connect 46 0 47 0;
#X connect 47 0 48 0;
#X connect 48 0 64 0;
#X connect 49 0 50 0;
#X connect 50 0 51 0;
#X connect 51 0 52 0;
#X connect 52 0 44 0;
#X connect 52 0 66 0;
#X connect 53 0 73 0;
#X connect 54 0 53 0;
#X connect 55 0 63 0;
#X connect 55 0 89 0;
#X connect 56 0 96 0;
#X connect 57 0 68 0;
#X connect 58 0 57 0;
#X connect 59 0 97 0;
#X connect 62 0 87 0;
#X connect 64 0 98 0;
#X connect 65 0 67 0;
#X connect 67 0 43 1;
#X connect 68 0 59 1;
#X connect 69 0 65 0;
#X connect 70 0 71 0;
#X connect 71 0 72 0;
#X connect 72 0 69 1;
#X connect 73 0 95 0;
#X connect 74 0 73 1;
#X connect 75 0 76 0;
#X connect 76 0 77 0;
#X connect 77 0 59 0;
#X connect 78 0 81 0;
#X connect 79 0 85 0;
#X connect 80 0 78 0;
#X connect 81 0 76 1;
#X connect 82 0 83 0;
#X connect 83 0 84 0;
#X connect 84 0 81 1;
#X connect 85 0 86 0;
#X connect 86 0 80 0;
#X connect 87 0 88 0;
#X connect 88 0 58 0;
#X connect 89 0 90 0;
#X connect 90 0 56 0;
#X connect 92 0 60 0;
#X connect 92 1 61 0;
#X connect 93 0 94 0;
#X connect 94 0 92 1;
#X connect 95 0 70 0;
#X connect 95 1 87 0;
#X connect 95 2 79 0;
#X connect 95 3 82 0;
#X connect 95 4 93 0;
#X connect 96 0 53 1;
#X connect 96 0 91 0;
#X connect 97 0 92 0;
#X connect 98 0 97 1;
