#N canvas 959 45 959 235 10;
#X obj 662 67 r oscIn;
#X obj 662 89 route voice\$1;
#X obj 662 111 route spawn x y z area;
#X msg 739 170 \$1;
#X obj 118 395 line~;
#X msg 798 165 1 \$1;
#X obj 798 186 -;
#X obj 798 213 - 0.6;
#X obj 798 240 max 0;
#X msg 458 925 \$1 50;
#X obj 458 947 line~;
#X msg 677 202 \$1;
#X obj 798 262 * 2.5;
#X obj 739 192 s \$0.y;
#X obj 798 284 s \$0.z;
#X msg 546 193 \$1;
#X obj 546 215 s \$0.spawn;
#X obj 170 252 r \$0.spawn;
#X obj 168 279 sel 0;
#X obj 118 332 pack f f;
#X msg 168 301 0;
#X obj 118 354 t a b;
#X msg 202 337 32;
#X obj 242 416 line~;
#X obj 298 274 r \$0.spawn;
#X obj 298 296 sel 0;
#X obj 242 353 pack f f;
#X msg 298 318 0;
#X obj 242 375 t a b;
#X msg 326 358 32;
#X obj 462 896 r \$0.spawn;
#X obj 156 176 line~;
#X obj 208 39 r \$0.spawn;
#X obj 208 61 sel 0;
#X obj 156 113 pack f f;
#X msg 208 83 0;
#X obj 156 135 t a b;
#X msg 240 118 32;
#X obj 266 849 phasor~;
#X obj 263 885 +~;
#X obj 266 922 cos~;
#X obj 392 868 *~;
#X obj 266 944 *~;
#X obj 111 289 r \$0.x;
#X obj 118 417 s~ \$0.x;
#X obj 241 326 r \$0.y;
#X obj 242 438 s~ \$0.y;
#X obj 154 88 r \$0.z;
#X obj 156 204 s~ \$0.z;
#X obj 343 524 r~ \$0.x;
#X obj 832 712 r~ \$0.z;
#X obj 368 907 r~ \$0.z;
#X obj 262 970 *~;
#X obj 262 992 outlet~;
#X obj 296 615 octave~;
#X obj 276 537 sig~;
#X obj 672 232 s \$0.x;
#X obj 657 413 t f f;
#X obj 657 457 tabread scale;
#X obj 379 652 expr~ if($f3==0 \, $v1 \, $v2);
#X obj 816 481 r oscIn;
#X obj 816 503 route voice-1;
#X obj 816 525 route mode;
#X msg 816 547 \$1;
#X obj 657 391 r \$0.x;
#X obj 648 514 *;
#X obj 662 583 sig~;
#X obj 662 561 octave;
#X obj 657 436 mod 7;
#X obj 763 456 div 7;
#X obj 468 365 r oscIn;
#X obj 468 387 route voice-1;
#X obj 468 409 route tonic;
#X msg 468 431 \$1;
#X obj 468 453 t f f;
#X obj 381 775 *~ 2;
#X obj 368 929 *~;
#X obj 832 734 *~;
#X obj 392 846 cos~;
#X obj 380 801 phasor~;
#X obj 426 823 +~;
#X obj 496 794 osc~;
#X obj 496 816 *~;
#X obj 495 744 *~ 5;
#X obj 703 794 *~ 0.125;
#X obj 624 724 *~;
#X obj 762 658 r~ \$0.y;
#X obj 624 746 +~ 1;
#X obj 393 712 *~;
#X obj 762 680 *~ 0.0635;
#X obj 624 702 osc~ 6;
#X obj 828 814 *~ 2;
#X obj 345 560 *~ 3;
#X connect 0 0 1 0;
#X connect 1 0 2 0;
#X connect 2 0 15 0;
#X connect 2 1 11 0;
#X connect 2 2 3 0;
#X connect 2 3 5 0;
#X connect 3 0 13 0;
#X connect 4 0 44 0;
#X connect 5 0 6 0;
#X connect 6 0 7 0;
#X connect 7 0 8 0;
#X connect 8 0 12 0;
#X connect 9 0 10 0;
#X connect 10 0 52 1;
#X connect 11 0 56 0;
#X connect 12 0 14 0;
#X connect 15 0 16 0;
#X connect 17 0 18 0;
#X connect 18 0 20 0;
#X connect 19 0 21 0;
#X connect 20 0 19 1;
#X connect 21 0 4 0;
#X connect 21 1 22 0;
#X connect 22 0 19 1;
#X connect 23 0 46 0;
#X connect 24 0 25 0;
#X connect 25 0 27 0;
#X connect 26 0 28 0;
#X connect 27 0 26 1;
#X connect 28 0 23 0;
#X connect 28 1 29 0;
#X connect 29 0 26 1;
#X connect 30 0 9 0;
#X connect 31 0 48 0;
#X connect 32 0 33 0;
#X connect 33 0 35 0;
#X connect 34 0 36 0;
#X connect 35 0 34 1;
#X connect 36 0 31 0;
#X connect 36 1 37 0;
#X connect 37 0 34 1;
#X connect 38 0 39 0;
#X connect 39 0 40 0;
#X connect 40 0 42 0;
#X connect 41 0 39 1;
#X connect 42 0 52 0;
#X connect 43 0 19 0;
#X connect 45 0 26 0;
#X connect 47 0 34 0;
#X connect 49 0 92 0;
#X connect 50 0 77 0;
#X connect 50 0 77 1;
#X connect 51 0 76 0;
#X connect 51 0 76 1;
#X connect 52 0 53 0;
#X connect 54 0 59 0;
#X connect 55 0 54 0;
#X connect 57 0 68 0;
#X connect 57 1 69 0;
#X connect 58 0 65 0;
#X connect 59 0 88 0;
#X connect 60 0 61 0;
#X connect 61 0 62 0;
#X connect 62 0 63 0;
#X connect 63 0 59 2;
#X connect 64 0 57 0;
#X connect 65 0 67 0;
#X connect 66 0 59 1;
#X connect 67 0 66 0;
#X connect 68 0 58 0;
#X connect 69 0 67 1;
#X connect 70 0 71 0;
#X connect 71 0 72 0;
#X connect 72 0 73 0;
#X connect 73 0 74 0;
#X connect 74 0 55 0;
#X connect 74 1 65 1;
#X connect 75 0 79 0;
#X connect 76 0 42 1;
#X connect 77 0 84 0;
#X connect 77 0 91 0;
#X connect 78 0 41 0;
#X connect 79 0 80 0;
#X connect 80 0 78 0;
#X connect 81 0 82 0;
#X connect 82 0 80 1;
#X connect 83 0 81 0;
#X connect 84 0 82 1;
#X connect 85 0 87 0;
#X connect 86 0 89 0;
#X connect 87 0 88 1;
#X connect 88 0 38 0;
#X connect 88 0 75 0;
#X connect 88 0 83 0;
#X connect 89 0 85 1;
#X connect 90 0 85 0;
#X connect 91 0 41 1;
#X connect 92 0 54 1;
