#N canvas 0 45 1246 1033 10;
#X obj 128 40 netreceive -u -b 6666;
#X obj 128 62 oscparse;
#X obj 128 84 list trim;
#X obj 128 106 s oscIn;
#N canvas 0 45 1246 1033 fmSynths 0;
#X text 768 230 major;
#X text 771 270 hijaz;
#X text 771 310 minor;
#X obj 921 163 table scale;
#X obj 9 243 osc~;
#X obj 837 52 r oscIn;
#X obj 837 74 route voice-1;
#X obj 846 166 sel 0 1 2;
#X obj 837 96 route scale;
#X msg 837 118 \$1;
#X msg 821 306 \; scale 0 1 1.125 1.2 1.33333 1.5 1.6 1.77778 \;;
#X msg 820 227 \; scale 0 1 1.125 1.25 1.33333 1.5 1.66667 1.875 \;
;
#X msg 821 266 \; scale 0 1 1.06667 1.25 1.33333 1.5 1.6 1.77778 \;
;
#X obj 24 -19 r oscIn;
#X obj 24 3 route voice-1;
#X msg 24 47 \$1;
#X obj 36 286 *~;
#X obj 24 25 route tonic drone;
#X msg 115 56 \$1;
#X obj 115 78 pack f 50;
#X obj 115 100 line~;
#X obj 115 122 *~;
#X obj 115 144 *~ 0.5;
#X obj 51 214 osc~;
#X obj 10 199 +~;
#X obj 15 161 lop~ 24;
#X obj 52 187 *~ 0.5;
#X obj 60 246 *~ 100;
#X obj 148 237 fmSynth 0;
#X obj 284 933 outlet~;
#X obj 504 945 outlet~;
#X obj 169 531 catch~ fmOutL;
#X obj 534 641 catch~ fmOutR;
#X obj 202 406 throw~ fmOutL;
#X obj 299 404 throw~ fmOutR;
#X obj 374 249 *~ 0.35;
#X obj 462 256 *~ 0.35;
#X obj 359 208 cloud 0;
#X obj 418 200 cloud 1;
#X obj 484 202 cloud 2;
#X obj 545 197 cloud 3;
#X obj 24 69 * 2;
#X obj 406 452 route voice-1;
#X obj 406 474 route timbre;
#X msg 403 496 \$1;
#X obj 406 430 r oscIn;
#X obj 351 789 blur~ 75 0.95 5000;
#X obj 346 843 *~ 0.75;
#X obj 446 859 *~ 0.75;
#X obj 122 844 delwrite~ l 500;
#X obj 126 761 delread~ l 300;
#X obj 126 795 *~ 0.5;
#X obj 595 785 delread~ r 250;
#X obj 593 855 delwrite~ r 500;
#X obj 590 821 *~ 0.5;
#X obj 531 720 *~ 1;
#X obj 296 706 *~ 1;
#X obj 210 357 *~ 0.25;
#X obj 305 589 lop~ 24;
#X obj 380 592 lop~ 24;
#X obj 468 614 lop~ 24;
#X obj 221 622 *~;
#X obj 525 688 *~;
#X obj 748 552 noiseSynth 0;
#X obj 736 448 noise~;
#X obj 731 515 s~ noise, f 9;
#X obj 664 639 *~;
#X obj 736 470 lop~ 600;
#X obj 758 645 *~ 0.125;
#X obj 785 585 noiseSynth 1;
#X obj 848 553 noiseSynth 2;
#X obj 884 585 noiseSynth 3;
#X obj 483 648 *~;
#X floatatom 492 508 5 0 0 0 - - -, f 5;
#X obj 608 373 sweep 1;
#X obj 542 402 *~ 2;
#X obj 542 369 sweep 0;
#X obj 554 332 sweep 2;
#X obj 620 336 sweep 3;
#X obj 322 530 expr if($f1==0 \, 1 \, 0) \; if($f1==1 \, 1 \, 0) \;
if($f1==2 \, 1 \, 0) \; if($f1==3 \, 1 \, 0) \;;
#X obj 551 573 lop~ 24;
#X obj 551 595 *~;
#X obj 396 41 table vox;
#X obj 541 101 soundfiler;
#X obj 541 123 f;
#X obj 541 145 s voxSize;
#X obj 498 115 bng 15 250 50 0 empty empty empty 17 7 0 10 -262144
-1 -1;
#X obj 560 456 vox 0;
#X obj 611 455 vox 1;
#X obj 580 435 vox 2;
#X obj 631 434 vox 3;
#X obj 560 478 *~ 2;
#X msg 541 79 read -resize scream.wav vox;
#X obj 564 22 loadbang;
#X obj 199 275 fmSynth 1;
#X obj 256 296 fmSynth 2;
#X obj 308 262 fmSynth 3;
#X connect 4 0 16 0;
#X connect 5 0 6 0;
#X connect 6 0 8 0;
#X connect 7 0 11 0;
#X connect 7 1 12 0;
#X connect 7 2 10 0;
#X connect 8 0 9 0;
#X connect 9 0 7 0;
#X connect 13 0 14 0;
#X connect 14 0 17 0;
#X connect 15 0 41 0;
#X connect 16 0 33 0;
#X connect 16 0 34 0;
#X connect 17 0 15 0;
#X connect 17 1 18 0;
#X connect 18 0 19 0;
#X connect 19 0 20 0;
#X connect 20 0 21 0;
#X connect 20 0 21 1;
#X connect 21 0 22 0;
#X connect 22 0 16 1;
#X connect 23 0 27 0;
#X connect 24 0 4 0;
#X connect 25 0 24 0;
#X connect 25 0 26 0;
#X connect 26 0 23 0;
#X connect 27 0 24 1;
#X connect 28 0 57 0;
#X connect 31 0 61 0;
#X connect 32 0 62 0;
#X connect 35 0 33 0;
#X connect 36 0 34 0;
#X connect 37 0 35 0;
#X connect 37 1 36 0;
#X connect 38 0 35 0;
#X connect 38 1 36 0;
#X connect 39 0 35 0;
#X connect 39 1 36 0;
#X connect 40 0 35 0;
#X connect 40 1 36 0;
#X connect 41 0 25 0;
#X connect 42 0 43 0;
#X connect 43 0 44 0;
#X connect 44 0 73 0;
#X connect 44 0 79 0;
#X connect 45 0 42 0;
#X connect 46 0 47 0;
#X connect 46 1 48 0;
#X connect 47 0 29 0;
#X connect 48 0 30 0;
#X connect 50 0 51 0;
#X connect 51 0 49 0;
#X connect 51 0 29 0;
#X connect 51 0 46 0;
#X connect 52 0 54 0;
#X connect 54 0 53 0;
#X connect 54 0 30 0;
#X connect 54 0 46 1;
#X connect 55 0 30 0;
#X connect 55 0 53 0;
#X connect 55 0 46 1;
#X connect 56 0 29 0;
#X connect 56 0 49 0;
#X connect 56 0 46 0;
#X connect 57 0 33 0;
#X connect 57 0 34 0;
#X connect 58 0 61 1;
#X connect 58 0 62 1;
#X connect 59 0 66 0;
#X connect 60 0 72 1;
#X connect 61 0 56 0;
#X connect 62 0 55 0;
#X connect 63 0 68 0;
#X connect 64 0 67 0;
#X connect 66 0 56 0;
#X connect 66 0 55 0;
#X connect 67 0 65 0;
#X connect 68 0 66 1;
#X connect 69 0 68 0;
#X connect 70 0 68 0;
#X connect 71 0 68 0;
#X connect 72 0 56 0;
#X connect 72 0 55 0;
#X connect 74 0 75 0;
#X connect 75 0 72 0;
#X connect 76 0 75 0;
#X connect 77 0 75 0;
#X connect 78 0 75 0;
#X connect 79 0 58 0;
#X connect 79 1 59 0;
#X connect 79 2 60 0;
#X connect 79 3 80 0;
#X connect 80 0 81 0;
#X connect 81 0 56 0;
#X connect 81 0 55 0;
#X connect 83 0 84 0;
#X connect 84 0 85 0;
#X connect 86 0 84 0;
#X connect 87 0 91 0;
#X connect 88 0 91 0;
#X connect 89 0 91 0;
#X connect 90 0 91 0;
#X connect 91 0 81 1;
#X connect 92 0 83 0;
#X connect 93 0 92 0;
#X connect 94 0 57 0;
#X connect 95 0 57 0;
#X connect 96 0 57 0;
#X restore 271 199 pd fmSynths;
#X obj 280 412 dac~;
#X obj 278 374 *~;
#X obj 348 371 *~;
#X obj 159 133 r oscIn;
#X obj 159 155 route voice-1;
#X obj 159 177 route volume;
#X msg 159 199 \$1;
#X obj 159 221 lop~ 24;
#X obj 159 243 *~;
#X obj 266 239 *~ 0.8;
#X obj 335 241 *~ 0.8;
#N canvas 0 50 1149 1033 breakbeat 0;
#X obj 15 290 tgl 15 0 empty empty empty 17 7 0 10 -262144 -1 -1 0
1;
#X obj 15 310 s bbStop;
#X obj 586 459 s bbStutter;
#X obj 111 285 tgl 15 0 empty empty empty 17 7 0 10 -262144 -1 -1 0
1;
#X obj 111 305 s bbMod;
#X obj 379 292 tgl 15 0 empty empty empty 17 7 0 10 -262144 -1 -1 1
1;
#X obj 379 312 s bbCrush;
#X obj 286 282 tgl 15 0 empty empty empty 17 7 0 10 -262144 -1 -1 0
1;
#X obj 286 302 s bbShuffle;
#X obj 189 296 tgl 15 0 empty empty empty 17 7 0 10 -262144 -1 -1 0
1;
#X obj 189 316 s bbPitch;
#X obj 59 117 r oscIn;
#X obj 59 139 route voice0;
#X msg 59 183 \$1;
#X msg 130 235 \$1;
#X msg 205 229 \$1;
#X msg 271 246 \$1;
#X msg 342 217 \$1;
#N canvas 0 50 1149 1033 beat 0;
#X obj 724 274 soundfiler;
#X obj 659 108 table breakL;
#X obj 759 108 table breakR;
#X msg 725 242 read -resize amen.wav breakL breakR;
#X obj 726 349 s breakSize;
#X obj 724 319 i;
#X obj 699 299 bng 15 250 50 0 empty empty empty 17 7 0 10 -262144
-1 -1;
#X obj 261 838 tabread4~ breakR;
#X obj 182 810 tabread4~ breakL;
#X obj 152 558 phasor~;
#X obj 176 623 *~;
#X obj 208 595 r breakSize;
#X obj 413 223 metro;
#X msg 465 89 60000 \$1;
#X obj 465 111 /;
#X obj 465 133 / 16;
#X obj 429 276 f;
#X obj 471 275 + 1;
#X obj 498 189 t f f;
#X obj 174 237 * 128;
#X msg 174 259 1000 \$1;
#X obj 174 281 /;
#X obj 171 350 *~;
#X obj 274 216 sel 0 1;
#X msg 274 238 1;
#X obj 514 232 s time;
#X obj 174 215 r time;
#X obj 424 302 s t;
#X obj 515 350 r t;
#X obj 689 513 mod 128;
#X obj 689 557 int;
#X obj 689 535 / 16;
#X obj 689 579 / 8;
#X obj 689 601 change;
#X obj 538 697 f;
#X obj 500 593 sel 0;
#X obj 797 555 sel 0;
#X obj 797 577 random 8;
#X obj 797 599 / 8;
#X obj 694 644 expr if($f3==0 \, $f1 \, $f2);
#X obj 325 296 line~;
#X obj 204 885 *~;
#X obj 252 872 *~;
#X obj 498 476 mod 16;
#X obj 515 372 t f f f;
#X msg 606 346 2 \$1;
#X obj 606 368 pow;
#X obj 323 616 samplerate~;
#X obj 325 596 t b;
#X obj 322 572 r t;
#X obj 321 673 phasor~;
#X obj 323 638 * 0.125;
#X obj 233 701 samphold~;
#X obj 164 752 expr~ if($f3==0 \, $v1 \, $v2);
#X obj 371 154 loadbang;
#X obj 185 427 *~;
#X obj 308 444 line~;
#X obj 284 363 sel 0 1;
#X msg 331 404 0.5 75;
#X msg 282 384 1;
#X obj 226 486 *~;
#X obj 376 538 line~;
#X obj 364 478 sel 0 1;
#X msg 362 499 0;
#X obj 148 501 *~;
#X obj 226 508 +~ 1;
#X msg 417 502 0.625;
#X obj 224 464 osc~ 75;
#X obj 757 209 loadbang;
#X obj 178 936 outlet~;
#X obj 271 939 outlet~;
#X obj 163 97 r bbStop;
#X obj 595 265 r bbStutter;
#X obj 396 442 r bbMod;
#X obj 401 705 r bbCrush;
#X obj 908 635 r bbShuffle;
#X obj 328 321 r bbPitch;
#X obj 797 533 mod 4;
#X obj 428 190 bng 15 250 50 0 empty empty empty 17 7 0 10 -262144
-1 -1;
#X msg 321 256 -1 200;
#X obj 582 48 r oscIn;
#X obj 582 70 route voice-1;
#X obj 582 92 route tempo;
#X msg 582 114 \$1;
#X connect 0 0 5 0;
#X connect 3 0 0 0;
#X connect 5 0 4 0;
#X connect 6 0 5 0;
#X connect 7 0 42 0;
#X connect 8 0 41 0;
#X connect 9 0 10 0;
#X connect 10 0 53 0;
#X connect 10 0 52 0;
#X connect 11 0 10 1;
#X connect 12 0 16 0;
#X connect 13 0 14 0;
#X connect 14 0 15 0;
#X connect 15 0 18 0;
#X connect 16 0 17 0;
#X connect 16 0 27 0;
#X connect 17 0 16 1;
#X connect 18 0 12 1;
#X connect 18 1 25 0;
#X connect 19 0 20 0;
#X connect 20 0 21 0;
#X connect 21 0 22 0;
#X connect 22 0 55 0;
#X connect 23 0 24 0;
#X connect 23 1 79 0;
#X connect 24 0 40 0;
#X connect 26 0 19 0;
#X connect 28 0 44 0;
#X connect 29 0 31 0;
#X connect 30 0 32 0;
#X connect 31 0 30 0;
#X connect 32 0 33 0;
#X connect 33 0 39 0;
#X connect 34 0 9 1;
#X connect 35 0 34 0;
#X connect 36 0 37 0;
#X connect 37 0 38 0;
#X connect 38 0 39 1;
#X connect 39 0 34 1;
#X connect 40 0 22 1;
#X connect 40 0 41 1;
#X connect 40 0 42 1;
#X connect 41 0 69 0;
#X connect 42 0 70 0;
#X connect 43 0 35 0;
#X connect 44 0 43 0;
#X connect 44 1 29 0;
#X connect 44 2 77 0;
#X connect 45 0 46 0;
#X connect 46 0 43 1;
#X connect 47 0 51 0;
#X connect 48 0 47 0;
#X connect 49 0 48 0;
#X connect 50 0 52 1;
#X connect 51 0 50 0;
#X connect 52 0 53 1;
#X connect 53 0 8 0;
#X connect 53 0 7 0;
#X connect 54 0 12 0;
#X connect 55 0 64 0;
#X connect 56 0 55 1;
#X connect 57 0 59 0;
#X connect 57 1 58 0;
#X connect 58 0 56 0;
#X connect 59 0 56 0;
#X connect 60 0 65 0;
#X connect 61 0 60 1;
#X connect 62 0 63 0;
#X connect 62 1 66 0;
#X connect 63 0 61 0;
#X connect 64 0 9 0;
#X connect 65 0 64 1;
#X connect 66 0 61 0;
#X connect 67 0 60 0;
#X connect 68 0 3 0;
#X connect 71 0 23 0;
#X connect 72 0 45 0;
#X connect 73 0 62 0;
#X connect 74 0 53 2;
#X connect 75 0 39 2;
#X connect 76 0 57 0;
#X connect 77 0 36 0;
#X connect 78 0 12 0;
#X connect 79 0 40 0;
#X connect 80 0 81 0;
#X connect 81 0 82 0;
#X connect 82 0 83 0;
#X connect 83 0 13 0;
#X restore 323 492 pd beat;
#X obj 328 535 outlet~;
#X obj 418 546 outlet~;
#X msg 499 193 \$1;
#X msg 662 376 4;
#X msg 559 199 \$1;
#X msg 632 182 \$1;
#X msg 484 364 1;
#X msg 532 369 2;
#X msg 605 381 3;
#X obj 636 286 == 0;
#X obj 636 308 &&;
#X obj 499 215 t f f;
#X obj 559 221 t f f;
#X obj 632 204 t f f;
#X obj 705 283 == 0;
#X obj 705 305 &&;
#X obj 782 281 == 0;
#X obj 636 330 sel 1;
#X obj 456 279 sel 1;
#X obj 517 293 sel 1;
#X obj 571 301 sel 1;
#X obj 59 161 route trigger0 trigger1 trigger2 trigger3 trigger4;
#X obj 481 99 route trigger5 trigger6 trigger7;
#X connect 0 0 1 0;
#X connect 3 0 4 0;
#X connect 5 0 6 0;
#X connect 7 0 8 0;
#X connect 9 0 10 0;
#X connect 11 0 12 0;
#X connect 12 0 40 0;
#X connect 13 0 0 0;
#X connect 14 0 3 0;
#X connect 15 0 9 0;
#X connect 16 0 7 0;
#X connect 17 0 5 0;
#X connect 18 0 19 0;
#X connect 18 1 20 0;
#X connect 21 0 30 0;
#X connect 22 0 2 0;
#X connect 23 0 31 0;
#X connect 24 0 32 0;
#X connect 25 0 2 0;
#X connect 26 0 2 0;
#X connect 27 0 2 0;
#X connect 28 0 29 0;
#X connect 29 0 36 0;
#X connect 30 0 37 0;
#X connect 30 1 28 0;
#X connect 31 0 38 0;
#X connect 31 1 33 0;
#X connect 32 0 39 0;
#X connect 32 1 35 0;
#X connect 33 0 34 0;
#X connect 34 0 29 1;
#X connect 35 0 34 1;
#X connect 36 0 22 0;
#X connect 37 0 27 0;
#X connect 38 0 26 0;
#X connect 39 0 25 0;
#X connect 40 0 13 0;
#X connect 40 1 14 0;
#X connect 40 2 15 0;
#X connect 40 3 16 0;
#X connect 40 4 17 0;
#X connect 40 5 41 0;
#X connect 41 0 21 0;
#X connect 41 1 23 0;
#X connect 41 2 24 0;
#X restore 598 89 pd breakbeat;
#X obj 283 287 *~;
#X obj 356 303 *~;
#X obj 394 243 lop~ 24;
#X obj 596 151 *~ 0.8;
#X obj 665 153 *~ 0.8;
#X obj 613 199 *~;
#X obj 686 215 *~;
#X obj 724 155 lop~ 24;
#X obj 390 46 r oscIn;
#X obj 390 68 route voice-1;
#X msg 390 112 \$1;
#X obj 390 90 route fmSynth bbSynth;
#X msg 474 155 \$1;
#X obj 716 497 loadbang;
#X obj 716 519 delay 5;
#X msg 716 541 \; pd dsp 1 \;;
#X connect 0 0 1 0;
#X connect 1 0 2 0;
#X connect 2 0 3 0;
#X connect 4 0 14 0;
#X connect 4 1 15 0;
#X connect 6 0 5 0;
#X connect 7 0 5 1;
#X connect 8 0 9 0;
#X connect 9 0 10 0;
#X connect 10 0 11 0;
#X connect 11 0 12 0;
#X connect 12 0 13 0;
#X connect 12 0 13 1;
#X connect 13 0 6 1;
#X connect 13 0 7 1;
#X connect 14 0 17 0;
#X connect 15 0 18 0;
#X connect 16 0 20 0;
#X connect 16 1 21 0;
#X connect 17 0 6 0;
#X connect 18 0 7 0;
#X connect 19 0 18 1;
#X connect 19 0 17 1;
#X connect 20 0 22 0;
#X connect 21 0 23 0;
#X connect 22 0 6 0;
#X connect 23 0 7 0;
#X connect 24 0 23 1;
#X connect 24 0 22 1;
#X connect 25 0 26 0;
#X connect 26 0 28 0;
#X connect 27 0 19 0;
#X connect 28 0 27 0;
#X connect 28 1 29 0;
#X connect 29 0 24 0;
#X connect 30 0 31 0;
#X connect 31 0 32 0;
