#N canvas 1055 45 863 501 10;
#X obj 128 40 netreceive -u -b 6666;
#X obj 128 62 oscparse;
#X obj 128 84 list trim;
#X obj 566 83 testSynth 0;
#X obj 128 106 s oscIn;
#X obj 602 163 vol~;
#X obj 659 287 dac~;
#X obj 684 158 blur~ 75 0.95 5000;
#X obj 684 180 vol~;
#X obj 173 250 table scale;
#X obj 24 344 osc~;
#X obj 47 459 dac~;
#X text 674 329 major;
#X text 677 369 hijaz;
#X text 677 409 minor;
#X obj 359 125 r oscIn;
#X obj 359 147 route voice-1;
#X obj 359 264 sel 0 1 2;
#X obj 359 169 route scale;
#X msg 359 191 \$1;
#X msg 334 404 \; scale 0 1 1.125 1.2 1.33333 1.5 1.6 1.77778 \;;
#X msg 333 325 \; scale 0 1 1.125 1.25 1.33333 1.5 1.66667 1.875 \;
;
#X obj 312 77 metro 50;
#X obj 321 51 tgl 15 0 empty empty empty 17 7 0 10 -262144 -1 -1 1
1;
#X msg 334 364 \; scale 0 1 1.06667 1.25 1.33333 1.5 1.6 1.77778 \;
;
#X obj 30 174 r oscIn;
#X obj 30 196 route voice-1;
#X msg 30 240 \$1;
#X obj 51 387 *~;
#X obj 30 218 route tonic drone;
#X msg 121 249 \$1;
#X obj 121 271 pack f 50;
#X obj 121 293 line~;
#X obj 121 315 *~;
#X obj 121 337 *~ 0.5;
#X obj 66 315 osc~;
#X obj 25 300 +~;
#X obj 30 262 lop~ 24;
#X obj 67 288 *~ 0.5;
#X obj 75 347 *~ 100;
#X msg 228 147 \; octaveRange 3 \; modRange 2 \; modMin 0 \;;
#X obj 639 61 testSynth 1;
#X obj 737 225 delread~ r 250;
#X obj 734 280 delwrite~ r 500;
#X obj 468 256 delwrite~ l 500;
#X obj 471 201 delread~ l 300;
#X obj 471 223 *~ 0.5;
#X obj 737 247 *~ 0.5;
#X connect 0 0 1 0;
#X connect 1 0 2 0;
#X connect 2 0 4 0;
#X connect 3 0 5 0;
#X connect 3 0 5 1;
#X connect 5 0 6 0;
#X connect 5 0 7 0;
#X connect 5 0 46 0;
#X connect 5 1 6 1;
#X connect 5 1 7 1;
#X connect 5 1 47 0;
#X connect 7 0 8 0;
#X connect 7 1 8 1;
#X connect 8 0 6 0;
#X connect 8 1 6 1;
#X connect 10 0 28 0;
#X connect 15 0 16 0;
#X connect 16 0 18 0;
#X connect 17 0 21 0;
#X connect 17 1 24 0;
#X connect 17 2 20 0;
#X connect 18 0 19 0;
#X connect 19 0 17 0;
#X connect 22 0 40 0;
#X connect 23 0 22 0;
#X connect 25 0 26 0;
#X connect 26 0 29 0;
#X connect 27 0 37 0;
#X connect 28 0 11 0;
#X connect 28 0 11 1;
#X connect 29 0 27 0;
#X connect 29 1 30 0;
#X connect 30 0 31 0;
#X connect 31 0 32 0;
#X connect 32 0 33 0;
#X connect 32 0 33 1;
#X connect 33 0 34 0;
#X connect 34 0 28 1;
#X connect 35 0 39 0;
#X connect 36 0 10 0;
#X connect 37 0 36 0;
#X connect 37 0 38 0;
#X connect 38 0 35 0;
#X connect 39 0 36 1;
#X connect 41 0 5 0;
#X connect 41 0 5 1;
#X connect 42 0 6 1;
#X connect 42 0 47 0;
#X connect 45 0 6 0;
#X connect 45 0 46 0;
#X connect 46 0 44 0;
#X connect 46 0 7 0;
#X connect 47 0 43 0;
#X connect 47 0 7 1;
