#N canvas 0 45 957 1033 10;
#X obj 662 67 r oscIn;
#X obj 662 89 route voice\$1;
#X obj 662 111 route spawn x y z area;
#X msg 739 170 \$1;
#X obj 118 395 line~;
#X msg 798 165 1 \$1;
#X obj 798 186 -;
#X obj 798 213 - 0.6;
#X obj 798 240 max 0;
#X msg 677 202 \$1;
#X obj 798 262 * 2.5;
#X obj 739 192 s \$0.y;
#X obj 798 284 s \$0.z;
#X msg 546 193 \$1;
#X obj 546 215 s \$0.spawn;
#X obj 170 252 r \$0.spawn;
#X obj 168 279 sel 0;
#X obj 118 332 pack f f;
#X msg 168 301 0;
#X obj 118 354 t a b;
#X msg 202 337 32;
#X obj 242 416 line~;
#X obj 298 274 r \$0.spawn;
#X obj 298 296 sel 0;
#X obj 242 353 pack f f;
#X msg 298 318 0;
#X obj 242 375 t a b;
#X msg 326 358 32;
#X obj 156 176 line~;
#X obj 208 39 r \$0.spawn;
#X obj 208 61 sel 0;
#X obj 156 113 pack f f;
#X msg 208 83 0;
#X obj 156 135 t a b;
#X msg 240 118 32;
#X obj 111 289 r \$0.x;
#X obj 118 417 s~ \$0.x;
#X obj 241 326 r \$0.y;
#X obj 242 438 s~ \$0.y;
#X obj 154 88 r \$0.z;
#X obj 156 204 s~ \$0.z;
#X obj 381 483 r~ \$0.x;
#X obj 334 574 octave~;
#X obj 314 496 sig~;
#X obj 672 232 s \$0.x;
#X obj 657 413 t f f;
#X obj 657 457 tabread scale;
#X obj 379 652 expr~ if($f3==0 \, $v1 \, $v2);
#X obj 816 481 r oscIn;
#X obj 816 503 route voice-1;
#X obj 816 525 route mode;
#X msg 816 547 \$1;
#X obj 657 391 r \$0.x;
#X obj 648 514 *;
#X obj 662 583 sig~;
#X obj 662 561 octave;
#X obj 657 436 mod 7;
#X obj 763 456 div 7;
#X obj 468 365 r oscIn;
#X obj 468 387 route voice-1;
#X obj 468 409 route tonic;
#X msg 468 431 \$1;
#X obj 468 453 t f f;
#X obj 383 519 *~ 3;
#X obj 341 731 phasor~;
#X obj 342 780 mtob~;
#X obj 360 983 *~;
#X obj 534 859 r \$0.spawn;
#X obj 534 881 lop~ 12;
#X obj 349 992 outlet~;
#X obj 340 862 vcf~ 4;
#X obj 336 916 vcf~ 4;
#X obj 360 961 vcf~ 4;
#X obj 446 762 *~, f 7;
#X obj 606 671 r \$0.z;
#X obj 606 693 *~ 8;
#X obj 606 715 lop~ 12;
#X obj 379 674 *~ 0.5;
#X obj 130 807 expr~ if($v1>$v2 \, 1 \, 01-1);
#X obj 1 938 expr~ if($f3==0 \, $v1 \, $v2);
#X obj 72 669 loadbang;
#X obj 72 691 f \$1;
#X obj 72 713 mod 2;
#X floatatom 154 740 5 0 0 0 - - -, f 5;
#X obj 189 657 bng 15 250 50 0 empty empty empty 17 7 0 10 -262144
-1 -1;
#X obj 248 621 r~ \$0.z;
#X obj 248 643 *~ 0.75;
#X obj 248 665 +~ 0.2;
#X connect 0 0 1 0;
#X connect 1 0 2 0;
#X connect 2 0 13 0;
#X connect 2 1 9 0;
#X connect 2 2 3 0;
#X connect 2 3 5 0;
#X connect 3 0 11 0;
#X connect 4 0 36 0;
#X connect 5 0 6 0;
#X connect 6 0 7 0;
#X connect 7 0 8 0;
#X connect 8 0 10 0;
#X connect 9 0 44 0;
#X connect 10 0 12 0;
#X connect 13 0 14 0;
#X connect 15 0 16 0;
#X connect 16 0 18 0;
#X connect 17 0 19 0;
#X connect 18 0 17 1;
#X connect 19 0 4 0;
#X connect 19 1 20 0;
#X connect 20 0 17 1;
#X connect 21 0 38 0;
#X connect 22 0 23 0;
#X connect 23 0 25 0;
#X connect 24 0 26 0;
#X connect 25 0 24 1;
#X connect 26 0 21 0;
#X connect 26 1 27 0;
#X connect 27 0 24 1;
#X connect 28 0 40 0;
#X connect 29 0 30 0;
#X connect 30 0 32 0;
#X connect 31 0 33 0;
#X connect 32 0 31 1;
#X connect 33 0 28 0;
#X connect 33 1 34 0;
#X connect 34 0 31 1;
#X connect 35 0 17 0;
#X connect 37 0 24 0;
#X connect 39 0 31 0;
#X connect 41 0 63 0;
#X connect 42 0 47 0;
#X connect 43 0 42 0;
#X connect 45 0 56 0;
#X connect 45 1 57 0;
#X connect 46 0 53 0;
#X connect 47 0 77 0;
#X connect 48 0 49 0;
#X connect 49 0 50 0;
#X connect 50 0 51 0;
#X connect 51 0 47 2;
#X connect 52 0 45 0;
#X connect 53 0 55 0;
#X connect 54 0 47 1;
#X connect 55 0 54 0;
#X connect 56 0 46 0;
#X connect 57 0 55 1;
#X connect 58 0 59 0;
#X connect 59 0 60 0;
#X connect 60 0 61 0;
#X connect 61 0 62 0;
#X connect 62 0 43 0;
#X connect 62 1 53 1;
#X connect 63 0 42 1;
#X connect 64 0 78 0;
#X connect 64 0 65 0;
#X connect 65 0 79 0;
#X connect 66 0 69 0;
#X connect 67 0 68 0;
#X connect 68 0 66 1;
#X connect 70 1 71 0;
#X connect 71 1 72 0;
#X connect 72 0 66 0;
#X connect 73 0 70 1;
#X connect 73 0 71 1;
#X connect 73 0 72 1;
#X connect 74 0 75 0;
#X connect 75 0 76 0;
#X connect 76 0 73 1;
#X connect 77 0 64 0;
#X connect 77 0 73 0;
#X connect 78 0 79 1;
#X connect 79 0 70 0;
#X connect 80 0 81 0;
#X connect 81 0 82 0;
#X connect 82 0 79 2;
#X connect 82 0 83 0;
#X connect 84 0 81 0;
#X connect 85 0 86 0;
#X connect 86 0 87 0;
#X connect 87 0 78 1;
